<svg width="33" height="24" viewBox="0 0 33 24" fill="none" xmlns="http://www.w3.org/2000/svg">
<path d="M8.49672 23.2632C6.29156 23.2632 4.40773 22.4999 2.84522 20.9732C1.28174 19.4466 0.5 17.5807 0.5 15.3755C0.5 13.4854 1.06946 11.8012 2.20839 10.323C3.34732 8.84486 4.83762 7.89979 6.67928 7.48784C7.2851 5.25845 8.49672 3.45313 10.3142 2.07188C12.1316 0.690626 14.1914 0 16.4934 0C19.3286 0 21.7335 0.987231 23.7079 2.96169C25.6834 4.93713 26.6711 7.34244 26.6711 10.1776C28.3431 10.3715 29.7307 11.0922 30.8337 12.3397C31.9358 13.5881 32.4869 15.0484 32.4869 16.7204C32.4869 18.5378 31.851 20.0829 30.5793 21.3556C29.3066 22.6273 27.7615 23.2632 25.9441 23.2632H17.9474C17.1477 23.2632 16.4634 22.9787 15.8944 22.4097C15.3245 21.8398 15.0395 21.155 15.0395 20.3553V12.7948L13.7309 14.1033C13.4644 14.3699 13.1251 14.5031 12.7132 14.5031C12.3012 14.5031 11.962 14.3699 11.6954 14.1033C11.4288 13.8367 11.2956 13.4975 11.2956 13.0855C11.2956 12.6736 11.4288 12.3343 11.6954 12.0678L15.4757 8.28751C15.6211 8.14211 15.7786 8.03889 15.9482 7.97782C16.1178 7.91772 16.2996 7.88767 16.4934 7.88767C16.6873 7.88767 16.869 7.91772 17.0387 7.97782C17.2083 8.03889 17.3658 8.14211 17.5112 8.28751L21.2915 12.0678C21.558 12.3343 21.6913 12.6736 21.6913 13.0855C21.6913 13.4975 21.558 13.8367 21.2915 14.1033C21.0249 14.3699 20.6857 14.5031 20.2737 14.5031C19.8618 14.5031 19.5225 14.3699 19.2559 14.1033L17.9474 12.7948V20.3553H25.9441C26.9619 20.3553 27.8221 20.0039 28.5249 19.3012C29.2276 18.5984 29.579 17.7382 29.579 16.7204C29.579 15.7026 29.2276 14.8424 28.5249 14.1397C27.8221 13.4369 26.9619 13.0855 25.9441 13.0855H23.7632V10.1776C23.7632 8.16635 23.0546 6.45166 21.6375 5.03357C20.2194 3.61646 18.5047 2.9079 16.4934 2.9079C14.4821 2.9079 12.7679 3.61646 11.3508 5.03357C9.93274 6.45166 9.22369 8.16635 9.22369 10.1776H8.49672C7.09124 10.1776 5.89173 10.6744 4.8982 11.6679C3.90466 12.6615 3.4079 13.861 3.4079 15.2665C3.4079 16.6719 3.90466 17.8715 4.8982 18.865C5.89173 19.8585 7.09124 20.3553 8.49672 20.3553H10.6776C11.0896 20.3553 11.4352 20.4949 11.7143 20.774C11.9925 21.0522 12.1316 21.3973 12.1316 21.8092C12.1316 22.2212 11.9925 22.5663 11.7143 22.8444C11.4352 23.1236 11.0896 23.2632 10.6776 23.2632H8.49672Z" fill="black"/>
</svg>
