<svg width="40" height="40" viewBox="0 0 40 40" fill="none" xmlns="http://www.w3.org/2000/svg">
<path d="M35.2731 19.4355L21.1544 7.58627C20.8278 7.31257 20.4153 7.16243 19.9892 7.16211H19.9772C19.5513 7.1623 19.139 7.31247 18.8128 7.58627L4.68872 19.4355C4.49854 19.5857 4.34044 19.7726 4.22377 19.985C4.1071 20.1975 4.03423 20.4311 4.00948 20.6722C3.98472 20.9133 4.00859 21.157 4.07966 21.3887C4.15073 21.6204 4.26757 21.8355 4.42325 22.0212C4.57893 22.207 4.77029 22.3596 4.98601 22.4701C5.20173 22.5806 5.43743 22.6467 5.67914 22.6645C5.92085 22.6822 6.16368 22.6513 6.39324 22.5736C6.6228 22.4959 6.83443 22.3729 7.01561 22.2119L18.7441 12.3721C19.0903 12.0809 19.5282 11.9212 19.9806 11.9212C20.433 11.9212 20.8708 12.0809 21.217 12.3721L32.9435 22.2119C33.2699 22.485 33.6817 22.6349 34.1073 22.6354C34.4795 22.6358 34.8428 22.5217 35.1479 22.3084C35.453 22.0952 35.6849 21.7931 35.8123 21.4434C35.9397 21.0936 35.9562 20.7132 35.8598 20.3537C35.7633 19.9942 35.5584 19.6731 35.2731 19.4341V19.4355Z" fill="#083D77"/>
<path d="M30.9647 22.7668C29.9688 22.7668 28.9953 23.0621 28.1673 23.6154C27.3392 24.1687 26.6938 24.9551 26.3127 25.8751C25.9316 26.7952 25.8319 27.8076 26.0262 28.7844C26.2205 29.7611 26.7 30.6583 27.4042 31.3625C28.1084 32.0667 29.0056 32.5463 29.9824 32.7406C30.9591 32.9349 31.9715 32.8351 32.8916 32.454C33.8117 32.0729 34.5981 31.4275 35.1514 30.5995C35.7047 29.7715 36 28.7979 36 27.8021C35.9984 26.4671 35.4674 25.1873 34.5234 24.2433C33.5795 23.2994 32.2997 22.7684 30.9647 22.7668ZM30.9647 24.3634C31.1751 24.3634 31.3808 24.4258 31.5557 24.5427C31.7306 24.6596 31.867 24.8257 31.9475 25.0201C32.028 25.2144 32.049 25.4283 32.008 25.6347C31.967 25.841 31.8657 26.0306 31.7169 26.1793C31.5681 26.3281 31.3786 26.4294 31.1722 26.4705C30.9659 26.5115 30.752 26.4904 30.5576 26.4099C30.3633 26.3294 30.1971 26.1931 30.0802 26.0181C29.9634 25.8432 29.901 25.6375 29.901 25.4272C29.901 25.2874 29.9285 25.149 29.982 25.0199C30.0355 24.8908 30.1139 24.7735 30.2128 24.6747C30.3116 24.576 30.429 24.4976 30.5581 24.4442C30.6872 24.3908 30.825 24.3633 30.9647 24.3634ZM27.5201 26.4129C27.5201 26.2025 27.5824 25.9968 27.6993 25.8219C27.8162 25.6469 27.9823 25.5106 28.1767 25.4301C28.3711 25.3496 28.585 25.3285 28.7913 25.3696C28.9977 25.4106 29.1872 25.5119 29.336 25.6607C29.4847 25.8095 29.5861 25.999 29.6271 26.2053C29.6681 26.4117 29.6471 26.6256 29.5666 26.8199C29.4861 27.0143 29.3497 27.1804 29.1748 27.2973C28.9998 27.4142 28.7942 27.4766 28.5838 27.4766C28.3021 27.4755 28.0322 27.3631 27.833 27.1638C27.6339 26.9646 27.5209 26.6946 27.5201 26.4129ZM30.9647 31.2407C29.6495 31.2407 28.5838 30.4531 28.5838 29.4814C28.5838 28.5097 29.6509 27.7227 30.9647 27.7227C32.2785 27.7227 33.3456 28.5103 33.3456 29.4814C33.3456 30.4524 32.2799 31.2407 30.9647 31.2407ZM33.3456 27.4766C33.1344 27.4766 32.928 27.4139 32.7524 27.2965C32.5769 27.1791 32.4401 27.0123 32.3595 26.8171C32.2788 26.6219 32.2579 26.4072 32.2993 26.2001C32.3407 25.993 32.4427 25.8029 32.5923 25.6538C32.7418 25.5047 32.9323 25.4033 33.1395 25.3626C33.3467 25.3218 33.5614 25.3434 33.7563 25.4246C33.9512 25.5059 34.1176 25.6432 34.2345 25.8191C34.3513 25.995 34.4134 26.2017 34.4127 26.4129C34.4127 26.5528 34.3851 26.6913 34.3315 26.8206C34.2778 26.9498 34.1992 27.0672 34.1002 27.166C34.0011 27.2648 33.8835 27.3431 33.7542 27.3964C33.6248 27.4497 33.4855 27.477 33.3456 27.4766Z" fill="#083D77"/>
<path fill-rule="evenodd" clip-rule="evenodd" d="M28.0147 32.8376L10.5233 32.8383C9.85118 32.8383 9.20657 32.5713 8.73129 32.096C8.25602 31.6207 7.98901 30.9761 7.98901 30.304V22.5002L19.26 12.982C19.4623 12.8121 19.7181 12.7189 19.9823 12.7189C20.2465 12.7189 20.5022 12.8121 20.7045 12.982L31.4313 21.9855C31.2759 21.9734 31.1205 21.9668 30.9645 21.9668C29.683 21.9667 28.4371 22.3885 27.4192 23.167C26.4013 23.9455 25.6679 25.0374 25.3323 26.2741C24.9967 27.5109 25.0776 28.8237 25.5624 30.01C26.0472 31.1962 26.9089 32.1899 28.0147 32.8376ZM25.9808 21.6925L26 23.0002C25 24.0002 24.5 25.0002 24.2704 26.3079H22.2885V30.0002H17.6731V26.3079H13.5193V21.6925H17.6731V18.0002H22.2885V21.6925H25.9808Z" fill="#083D77"/>
<path d="M30.9649 24.1199C30.793 24.1198 30.6236 24.1536 30.465 24.2192C30.3063 24.2848 30.1621 24.3811 30.0406 24.5025C29.9192 24.6239 29.8228 24.7681 29.7571 24.9267C29.6913 25.0854 29.6575 25.2554 29.6575 25.4272C29.6575 25.5248 29.6684 25.6217 29.6898 25.716C29.6382 25.6341 29.5773 25.5577 29.5081 25.4885C29.3253 25.3057 29.0924 25.1812 28.8388 25.1308C28.5852 25.0803 28.3224 25.1062 28.0835 25.2051C27.8447 25.3041 27.6405 25.4716 27.4969 25.6866C27.3532 25.9016 27.2766 26.1543 27.2766 26.4129L27.2766 26.4136C27.2777 26.76 27.4165 27.0915 27.6608 27.3359C27.9054 27.5807 28.2369 27.7188 28.5829 27.7201H28.5838C28.8423 27.7201 29.0951 27.6434 29.31 27.4998C29.525 27.3561 29.6926 27.152 29.7915 26.9131C29.8904 26.6743 29.9163 26.4114 29.8659 26.1578C29.8636 26.1465 29.8612 26.1352 29.8587 26.124C29.8649 26.1339 29.8713 26.1437 29.8778 26.1534C30.0214 26.3684 30.2256 26.5359 30.4645 26.6349C30.7033 26.7338 30.9662 26.7597 31.2197 26.7093C31.4733 26.6588 31.7062 26.5343 31.8891 26.3515C31.9554 26.2851 32.0141 26.2121 32.0644 26.134M30.9649 24.1199L30.9647 24.3634V24.1199C30.9648 24.1199 30.9648 24.1199 30.9649 24.1199ZM30.9649 24.1199C31.2233 24.12 31.476 24.1966 31.691 24.3402C31.9059 24.4839 32.0735 24.688 32.1724 24.9269C32.2714 25.1658 32.2972 25.4286 32.2468 25.6822C32.2455 25.6886 32.2442 25.695 32.2428 25.7014M32.2428 25.7014C32.1583 25.8331 32.0976 25.9796 32.0644 26.134M32.2428 25.7014C32.2097 25.8559 32.149 26.0023 32.0644 26.134M32.2428 25.7014C32.2936 25.6223 32.3531 25.5485 32.4204 25.4814C32.6041 25.2983 32.838 25.1738 33.0925 25.1237C33.347 25.0735 33.6106 25.1001 33.85 25.1999C34.0894 25.2997 34.2938 25.4683 34.4373 25.6844C34.5807 25.9003 34.6569 26.1538 34.6562 26.413C34.6562 26.5849 34.6222 26.7551 34.5564 26.9139C34.4905 27.0727 34.3939 27.2169 34.2721 27.3384C34.1504 27.4598 34.0059 27.556 33.8469 27.6215C33.688 27.687 33.5172 27.7204 33.3456 27.7201M32.0644 26.134C32.063 26.1401 32.0618 26.1462 32.0605 26.1523C32.0096 26.4067 32.0354 26.6704 32.1344 26.9101C32.2335 27.1498 32.4015 27.3547 32.6171 27.4989C32.8327 27.6431 33.0862 27.7201 33.3456 27.7201M33.3456 27.7201L33.3456 27.4766L33.3456 27.7201ZM35.1166 19.622L35.1607 19.6591C35.3848 19.8614 35.5461 20.1244 35.6246 20.4168C35.7081 20.728 35.6938 21.0573 35.5835 21.3601C35.4733 21.6628 35.2725 21.9243 35.0084 22.1089C34.7443 22.2935 34.4298 22.3923 34.1076 22.3919C33.7391 22.3914 33.3824 22.2617 33.0998 22.0251L21.3738 12.1858C20.9837 11.8576 20.4903 11.6777 19.9806 11.6777C19.4709 11.6777 18.9776 11.8576 18.5876 12.1856C18.5875 12.1856 18.5874 12.1857 18.5874 12.1858L6.85912 22.0253L6.85905 22.0253L6.85388 22.0299C6.69705 22.1692 6.51386 22.2757 6.31514 22.343C6.11643 22.4103 5.90623 22.437 5.697 22.4216C5.48776 22.4062 5.28374 22.349 5.09701 22.2534C4.91027 22.1578 4.74462 22.0256 4.60986 21.8648C4.4751 21.704 4.37396 21.5178 4.31244 21.3173C4.25092 21.1167 4.23026 20.9058 4.25168 20.6971C4.27311 20.4884 4.33619 20.2861 4.43718 20.1022C4.53818 19.9183 4.67504 19.7566 4.83966 19.6265L4.83972 19.6266L4.84521 19.622L18.9693 7.7728L18.9693 7.77278C19.2517 7.53578 19.6086 7.40578 19.9772 7.40559C19.9773 7.40559 19.9773 7.40559 19.9773 7.40559L19.9892 7.40559C20.3581 7.40589 20.7152 7.5359 20.998 7.77288L35.1166 19.622ZM20.548 13.1685L20.548 13.1685L30.745 21.7273C29.4877 21.7726 28.2735 22.2071 27.2713 22.9736C26.2109 23.7845 25.4469 24.922 25.0974 26.2104C24.7478 27.4987 24.832 28.8663 25.337 30.1021C25.7396 31.0872 26.3918 31.9449 27.2235 32.5941L10.5233 32.5948C9.91575 32.5948 9.33307 32.3534 8.90346 31.9238C8.47385 31.4942 8.2325 30.9115 8.2325 30.304V22.6133L19.4166 13.1685C19.4167 13.1684 19.4168 13.1683 19.4169 13.1682C19.5753 13.0353 19.7755 12.9624 19.9823 12.9624C20.1892 12.9624 20.3895 13.0354 20.548 13.1685ZM26.2243 21.6889L26.2208 21.449H25.9808H22.532V18.0002V17.7567H22.2885H17.6731H17.4297V18.0002V21.449H13.5193H13.2758V21.6925V26.3079V26.5514H13.5193H17.4297V30.0002V30.2437H17.6731H22.2885H22.532V30.0002V26.5514H24.2704H24.4749L24.5102 26.35C24.7313 25.0909 25.208 24.1365 26.1722 23.1724L26.245 23.0996L26.2435 22.9966L26.2243 21.6889ZM28.3025 23.8178C29.0905 23.2914 30.0168 23.0103 30.9644 23.0103C32.2349 23.0118 33.4529 23.5172 34.3512 24.4155C35.2496 25.3139 35.755 26.5319 35.7565 27.8023C35.7564 28.75 35.4754 29.6763 34.9489 30.4642C34.4224 31.2522 33.674 31.8664 32.7984 32.2291C31.9229 32.5918 30.9594 32.6867 30.0299 32.5018C29.1004 32.3169 28.2465 31.8605 27.5764 31.1904C26.9063 30.5202 26.4499 29.6664 26.265 28.7369C26.0801 27.8074 26.175 26.8439 26.5377 25.9683C26.9004 25.0927 27.5145 24.3444 28.3025 23.8178ZM28.3403 29.4814C28.3403 30.0626 28.6596 30.5689 29.1364 30.9212C29.6132 31.2736 30.2604 31.4842 30.9647 31.4842C31.6691 31.4842 32.3163 31.2734 32.7931 30.921C33.2698 30.5686 33.5891 30.0623 33.5891 29.4814C33.5891 28.9003 33.2693 28.3942 32.7925 28.042C32.3155 27.6898 31.6684 27.4792 30.9647 27.4792C30.2611 27.4792 29.6139 27.6896 29.1369 28.0418C28.66 28.3939 28.3403 28.9 28.3403 29.4814Z" stroke="#083D77" stroke-width="0.486964"/>
</svg>
